Coordinates
version=1
nRows=11
nColumns=42
inDegrees=yes

Units are S.I. units (second, meters, Newtons, ...)
If the header above contains a line with 'inDegrees', this indicates whether rotational values are in degrees (yes) or radians (no).

endheader
time	pelvis_tilt	pelvis_list	pelvis_rotation	pelvis_tx	pelvis_ty	pelvis_tz	hip_flexion_r	hip_adduction_r	hip_rotation_r	knee_angle_r	knee_adduction_r	knee_angle_r_beta	ankle_angle_r	subtalar_angle_r	mtp_angle_r	hip_flexion_l	hip_adduction_l	hip_rotation_l	knee_angle_l	knee_adduction_l	knee_angle_l_beta	ankle_angle_l	subtalar_angle_l	mtp_angle_l	lumbar_extension	lumbar_bending	lumbar_rotation	arm_flex_r	arm_add_r	arm_rot_r	elbow_flex_r	pro_sup_r	wrist_flex_r	wrist_dev_r	arm_flex_l	arm_add_l	arm_rot_l	elbow_flex_l	pro_sup_l	wrist_flex_l	wrist_dev_l
      1.62000000	      8.78097298	     -3.46019293	     -2.12058783	      0.72858969	      0.87758947	     -0.23959039	      0.70602242	      8.15981900	      2.87782499	     27.60125168	     -2.29761563	      0.48173272	     19.56334022	      0.71809904	     -7.50570110	     -2.84823422	     -8.92031459	    -16.28001174	     68.32000151	     -9.32273260	      1.19240897	      1.41681443	    -15.08127329	     -7.50570110	    -19.42893792	      1.53140861	     -3.27025072	     -3.01086091	     -1.97606941	    -23.31035863	     37.07455269	     90.00000001	      0.00000000	      0.00000000	     -2.27219615	     -5.87509926	    -12.69315804	     44.23597540	     90.00000001	      0.00000000	      0.00000000
      1.63000000	      9.20941419	     -3.17246739	     -2.26417063	      0.73944871	      0.87975122	     -0.23792866	     -1.29939299	      7.96667532	      3.79404017	     26.11801959	     -2.28916707	      0.45584544	     19.52691173	      0.40523241	     -7.50531849	     -1.54815881	     -8.63316127	    -16.18560303	     69.15782525	     -9.45877007	      1.20703175	      2.98532230	    -14.32068240	     -7.50531849	    -19.91212087	      1.07696170	     -2.66845321	     -3.29425229	     -2.19839700	    -21.39123589	     38.33020694	     90.00000001	      0.00000000	      0.00000000	     -2.19454352	     -5.79777656	    -12.77832943	     43.95608468	     90.00000001	      0.00000000	      0.00000000
      1.64000000	      9.22239697	     -2.66156317	     -2.37726328	      0.74990203	      0.88120288	     -0.23639144	     -2.53442678	      7.52377406	      3.86296920	     25.16751423	     -2.52239349	      0.43925599	     19.64690234	      0.68530866	     -7.50522274	      0.31468059	     -8.04589292	    -16.04565375	     69.85342197	     -9.65298767	      1.21917221	      4.32679249	    -13.97575761	     -7.50522274	    -19.94538618	      0.42611376	     -2.16735221	     -3.20171785	     -2.10110270	    -21.18673111	     39.09554459	     90.00000001	      0.00000000	      0.00000000	     -2.16963460	     -5.79446972	    -12.80219090	     43.80268463	     90.00000001	      0.00000000	      0.00000000
      1.65000000	      9.26393713	     -2.18322379	     -2.55585564	      0.76038533	      0.88248715	     -0.23481278	     -3.81088229	      7.07287164	      3.94449355	     24.19644430	     -2.68372003	      0.42230762	     19.77861060	      1.00183684	     -7.50513555	      2.06486050	     -7.53339053	    -15.87987842	     70.27911423	     -9.57922296	      1.22660194	      5.62814660	    -13.49871615	     -7.50513555	    -19.98692171	     -0.20429474	     -1.56313788	     -3.17101330	     -2.05941168	    -20.88402352	     39.92339732	     90.00000001	      0.00000000	      0.00000000	     -2.14518835	     -5.78025719	    -12.85264448	     43.66036657	     90.00000001	      0.00000000	      0.00000000
      1.66000000	      9.29957336	     -1.71102874	     -2.72012222	      0.77093209	      0.88361767	     -0.23346825	     -5.21247251	      6.58479033	      4.29749439	     22.92176708	     -2.75650573	      0.40006031	     19.97137632	      1.46730369	     -7.50503365	      3.72354633	     -6.96721300	    -15.57722192	     70.34019093	     -9.32848771	      1.22766793	      7.25583310	    -12.95599868	     -7.50503365	    -20.01264885	     -0.78087381	     -1.00352924	     -3.25835313	     -2.10488120	    -20.38746322	     41.06077263	     90.00000001	      0.00000000	      0.00000000	     -2.15295527	     -5.74879945	    -12.94972639	     43.43672017	     90.00000001	      0.00000000	      0.00000000
      1.67000000	      9.43049401	     -1.32443000	     -2.90454927	      0.78139530	      0.88469238	     -0.23220003	     -6.74255201	      6.16927618	      4.70400779	     21.57742184	     -2.81728752	      0.37659706	     20.10092963	      1.90314210	     -7.50491544	      5.19288399	     -6.51056698	    -15.23454566	     70.07165373	     -8.87204097	      1.22298107	      8.75559246	    -12.38408024	     -7.50491544	    -20.15228456	     -1.25835243	     -0.42608214	     -3.33843360	     -2.22358763	    -19.68478517	     42.26704097	     90.00000001	      0.00000000	      0.00000000	     -2.14084273	     -5.67948972	    -13.09515452	     43.26232756	     90.00000001	      0.00000000	      0.00000000
      1.68000000	      9.39896345	     -1.00461098	     -3.09912506	      0.79188338	      0.88530338	     -0.23077462	     -7.96882962	      5.88251234	      4.67183960	     20.48824127	     -3.04612070	      0.35758727	     20.13722910	      2.16785062	     -7.50482207	      6.81422912	     -6.18765978	    -15.02327965	     69.58868038	     -8.42378602	      1.21455159	      9.84092012	    -12.09728388	     -7.50482207	    -20.08760868	     -1.68034108	      0.17754302	     -3.35043027	     -2.31348323	    -19.19493669	     43.20236152	     90.00000001	      0.00000000	      0.00000000	     -2.21379734	     -5.61496987	    -13.22069486	     43.21568052	     90.00000001	      0.00000000	      0.00000000
      1.69000000	      9.55092221	     -0.74458590	     -3.22813634	      0.80253604	      0.88593261	     -0.22967676	     -9.61319401	      5.55774287	      5.11582467	     18.96672215	     -3.04512962	      0.33103175	     20.18391636	      2.66447057	     -7.50468757	      8.11354474	     -5.84112312	    -14.45353989	     68.79092159	     -7.67960084	      1.20062808	     10.98589250	    -12.00667173	     -7.50468757	    -20.22156060	     -1.97976624	      0.70369730	     -3.48423382	     -2.53143462	    -18.39401100	     44.46211766	     90.00000001	      0.00000000	      0.00000000	     -2.29260675	     -5.53710071	    -13.45917786	     43.06153569	     90.00000001	      0.00000000	      0.00000000
      1.70000000	      9.73257119	     -0.53711428	     -3.34692446	      0.81328039	      0.88639010	     -0.22844247	    -11.29781995	      5.36526263	      5.37510450	     17.44846245	     -3.22419680	      0.30453312	     20.06185528	      2.86410550	     -7.50450130	      9.28355163	     -5.60829495	    -13.90403065	     67.67307010	     -6.78168656	      1.18111789	     11.63135671	    -12.29581738	     -7.50450130	    -20.36679236	     -2.24543672	      1.20793168	     -3.54497662	     -2.78061050	    -17.60915373	     45.48678485	     90.00000001	      0.00000000	      0.00000000	     -2.41266714	     -5.47649259	    -13.73566132	     43.01771799	     90.00000001	      0.00000000	      0.00000000
      1.71000000	      9.61969168	     -0.38554928	     -3.43567235	      0.82382628	      0.88627985	     -0.22743694	    -12.53450055	      5.19479779	      5.37521144	     16.14163758	     -3.31661058	      0.28172472	     20.03052522	      3.29731705	     -7.50435086	     10.77708242	     -5.35528505	    -13.35127279	     66.37978943	     -6.02260799	      1.15854588	     12.22103632	    -12.70069395	     -7.50435086	    -20.21444065	     -2.38934039	      1.66261760	     -3.51811138	     -2.92023994	    -17.22145334	     46.46490729	     90.00000001	      0.00000000	      0.00000000	     -2.58703000	     -5.38393725	    -13.91250053	     42.95146315	     90.00000001	      0.00000000	      0.00000000
      1.72000000	      9.62610204	     -0.25578989	     -3.47589981	      0.83448085	      0.88610883	     -0.22644039	    -13.94668601	      5.06492491	      5.25166524	     14.75547547	     -3.46680384	      0.25753163	     19.96235486	      3.91904518	     -7.50419453	     12.00917905	     -5.13024018	    -12.69845142	     64.74762842	     -5.06740949	      1.13005930	     12.53799512	    -13.30805612	     -7.50419453	    -20.18665675	     -2.50624666	      2.03695593	     -3.46711039	     -3.09316505	    -16.79604133	     47.37628401	     90.00000001	      0.00000000	      0.00000000	     -2.77071921	     -5.32321090	    -14.13341962	     42.89484788	     90.00000001	      0.00000000	      0.00000000
